<svg width="31" height="43" viewBox="0 0 31 43" fill="none" xmlns="http://www.w3.org/2000/svg">
<path d="M28.8227 23.6966L31.2401 4.35794C31.3019 3.86329 31.2578 3.36116 31.1107 2.88485C30.9637 2.40854 30.717 1.96895 30.3871 1.59524C30.0572 1.22153 29.6516 0.922256 29.1972 0.717265C28.7428 0.512275 28.25 0.406258 27.7516 0.40625H18.1209C17.4058 0.408542 16.7082 0.627857 16.1204 1.03519C15.5327 1.44252 15.0824 2.01868 14.8291 2.68746L10.3482 14.6365C10.0547 15.4119 9.53263 16.0799 8.8512 16.5521C8.16977 17.0243 7.36104 17.2786 6.53197 17.2812H2.10938C1.55013 17.2819 1.01397 17.5043 0.618528 17.8998C0.223082 18.2952 0.000639703 18.8314 2.90633e-10 19.3906V23.6094C-2.6545e-06 23.7017 0.0181824 23.7931 0.0535168 23.8785C0.0888512 23.9638 0.140643 24.0413 0.205935 24.1066C0.271226 24.1719 0.348739 24.2236 0.434047 24.259C0.519356 24.2943 0.610789 24.3125 0.703125 24.3125H2.69607L0.198827 40.5445C0.128822 40.9995 0.237931 41.4639 0.503218 41.8401C0.768506 42.2163 1.16931 42.475 1.62138 42.5618C2.07344 42.6486 2.54156 42.5568 2.92733 42.3057C3.3131 42.0545 3.58648 41.6635 3.68999 41.215L7.59058 24.3125H10.2526L7.75532 40.5445C7.6853 40.9995 7.7944 41.4639 8.05969 41.8401C8.32498 42.2163 8.72579 42.475 9.17786 42.5619C9.62994 42.6487 10.0981 42.5569 10.4838 42.3057C10.8696 42.0545 11.143 41.6636 11.2465 41.215L15.1471 24.3125H17.8998L21.8004 41.215C21.9039 41.6636 22.1773 42.0545 22.563 42.3057C22.9488 42.5568 23.4169 42.6487 23.869 42.5619C24.3211 42.475 24.7219 42.2163 24.9872 41.8402C25.2524 41.464 25.3616 40.9996 25.2916 40.5446L22.7943 24.3125H23.5248L27.4254 41.215C27.5289 41.6636 27.8023 42.0545 28.188 42.3057C28.5738 42.5568 29.0419 42.6487 29.494 42.5619C29.9461 42.475 30.3469 42.2163 30.6122 41.8402C30.8774 41.464 30.9866 40.9996 30.9166 40.5446L28.4099 24.2515C28.5207 24.2025 28.617 24.1256 28.6893 24.0284C28.7617 23.9311 28.8076 23.8168 28.8227 23.6966ZM4.92188 18.6875H6.53197C7.64709 18.6839 8.73485 18.342 9.6514 17.7068C10.5679 17.0716 11.2701 16.1732 11.6649 15.1303L16.1459 3.18124C16.2978 2.77997 16.568 2.43427 16.9206 2.18986C17.2733 1.94546 17.6918 1.81387 18.1209 1.8125H27.7516C28.0506 1.8125 28.3463 1.87611 28.619 1.9991C28.8916 2.1221 29.135 2.30166 29.3329 2.52588C29.5308 2.7501 29.6788 3.01386 29.7671 3.29964C29.8553 3.58542 29.8818 3.8867 29.8447 4.18349L28.6537 13.711C28.5502 14.5282 28.202 15.2951 27.6548 15.9108C27.1076 16.5266 26.387 16.9625 25.5876 17.1613C26.4981 16.2919 27.0805 15.1348 27.2365 13.8857L28.1195 6.82158L26.7242 6.64717L25.8412 13.7113C25.7166 14.6964 25.2372 15.6024 24.4928 16.2595C23.7483 16.9167 22.7899 17.2799 21.7969 17.2812C21.2376 17.2819 20.7015 17.5043 20.306 17.8998C19.9106 18.2952 19.6881 18.8314 19.6875 19.3906V20.2147C19.4617 20.1346 19.2239 20.0937 18.9844 20.0938H4.92188C4.68232 20.0937 4.44451 20.1346 4.21875 20.2147V19.3906C4.21896 19.2042 4.29311 19.0255 4.42493 18.8937C4.55674 18.7619 4.73546 18.6877 4.92188 18.6875ZM23.9062 22.9062V19.3906C23.9065 19.2042 23.9806 19.0255 24.1124 18.8937C24.2442 18.7619 24.423 18.6877 24.6094 18.6875C25.9291 18.6874 27.2043 18.2099 28.1997 17.3433L27.5043 22.9062H23.9062ZM22.6205 18.6875C22.5405 18.9133 22.4998 19.1511 22.5 19.3906V22.9062H21.0938V19.3906C21.094 19.2042 21.1681 19.0255 21.2999 18.8937C21.4317 18.7619 21.6105 18.6877 21.7969 18.6875H22.6205ZM19.6875 22.9062H4.21875V22.2031C4.21896 22.0167 4.29311 21.838 4.42493 21.7062C4.55674 21.5744 4.73546 21.5002 4.92188 21.5H18.9844C19.1708 21.5002 19.3495 21.5744 19.4813 21.7062C19.6131 21.838 19.6873 22.0167 19.6875 22.2031V22.9062ZM1.40625 19.3906C1.40646 19.2042 1.48061 19.0255 1.61243 18.8937C1.74424 18.7619 1.92296 18.6877 2.10938 18.6875H2.93301C2.85303 18.9133 2.81227 19.1511 2.8125 19.3906V22.9062H1.40625V19.3906ZM2.31978 40.8988C2.29811 40.9927 2.24086 41.0746 2.16008 41.1272C2.07929 41.1798 1.98126 41.199 1.8866 41.1808C1.79193 41.1627 1.708 41.1085 1.65245 41.0297C1.5969 40.9509 1.57406 40.8537 1.58872 40.7584L4.11882 24.3125H6.14741L2.31978 40.8988ZM9.87628 40.8988C9.8546 40.9927 9.79736 41.0746 9.71657 41.1272C9.63579 41.1798 9.53776 41.199 9.44309 41.1808C9.34842 41.1627 9.26449 41.1085 9.20894 41.0297C9.15339 40.9509 9.13055 40.8537 9.14521 40.7584L11.6753 24.3125H13.7039L9.87628 40.8988ZM23.9017 40.7584C23.9163 40.8537 23.8935 40.9509 23.8379 41.0297C23.7824 41.1085 23.6984 41.1626 23.6038 41.1808C23.5091 41.199 23.4111 41.1798 23.3303 41.1272C23.2495 41.0746 23.1923 40.9927 23.1706 40.8988L19.343 24.3125H21.3716L23.9017 40.7584ZM29.4413 41.0576C29.3964 41.1098 29.3379 41.1487 29.2723 41.1697C29.2067 41.1908 29.1365 41.1932 29.0696 41.1767C29.0027 41.1603 28.9417 41.1256 28.8933 41.0765C28.8449 41.0275 28.8111 40.9659 28.7956 40.8988L24.968 24.3125H26.9966L29.5267 40.7584C29.5352 40.8115 29.5319 40.8658 29.5171 40.9175C29.5024 40.9691 29.4765 41.017 29.4413 41.0576H29.4413Z" fill="#D3BE73"/>
</svg>
